<?xml version="1.0" encoding="UTF-8" standalone="no"?>
<svg width="24px" height="24px" viewBox="0 0 24 24" version="1.1" xmlns="http://www.w3.org/2000/svg" xmlns:xlink="http://www.w3.org/1999/xlink">
    <!-- Generator: Sketch 50.2 (55047) - http://www.bohemiancoding.com/sketch -->
    <title>gluthea-check</title>
    <desc>Created with Sketch.</desc>
    <defs></defs>
    <g id="Website" stroke="none" stroke-width="1" fill="none" fill-rule="evenodd">
        <g id="Home" transform="translate(-790.000000, -1151.000000)" fill="#A1D170">
            <g id="Product" transform="translate(0.000000, 680.000000)">
                <g id="Card" transform="translate(750.000000, 80.000000)">
                    <g id="Stacked-Group" transform="translate(40.000000, 386.000000)">
                        <g id="Group">
                            <path d="M5.98660367,27.3986388 C7.8047666,28.4626864 9.81857833,28.995334 12.0006231,28.995334 C14.1814217,28.995334 16.1952334,28.4626864 18.0133963,27.3986388 C19.8602212,26.307148 21.3145023,24.8514111 22.3774859,23.0314282 C23.4678851,21.1827546 24,19.1956176 24,17.0113886 C24,14.8271595 23.4678851,12.8113319 22.3774859,10.991349 C21.3145023,9.14392282 19.8602212,7.68693852 18.0133963,6.62413832 C16.1952334,5.5314001 14.1814217,5 12.0006231,5 C9.81857833,5 7.8047666,5.5314001 5.98660367,6.62413832 C4.1397788,7.68693852 2.68549769,9.14392282 1.62251415,10.991349 C0.532114855,12.8113319 0,14.8271595 0,17.0113886 C0,19.1956176 0.532114855,21.1827546 1.62251415,23.0314282 C2.68549769,24.8514111 4.1397788,26.307148 5.98660367,27.3986388 L5.98660367,27.3986388 Z M4.22451841,16.5910087 L5.6501376,15.1914056 C5.84703256,14.995561 6.0700971,14.8832934 6.35048549,14.8832934 C6.62962771,14.8832934 6.85393842,14.995561 7.04958721,15.1914056 L10.5737577,18.7191039 L16.951659,12.3635089 C17.1473078,12.1676642 17.3703723,12.0553966 17.6507607,12.0553966 C17.9299029,12.0553966 18.1542136,12.1676642 18.3498624,12.3635089 L19.7767278,13.7631119 C19.9723766,13.9589566 20.05587,14.1834918 20.05587,14.4629135 C20.05587,14.7710257 19.9723766,14.995561 19.7767278,15.1914056 L11.3002752,23.6476527 C11.1046264,23.8434973 10.8528999,23.9545175 10.5737577,23.9545175 C10.3220313,23.9545175 10.0703048,23.8434973 9.874656,23.6476527 L4.22451841,18.0193024 C4.02886962,17.8234577 3.94413002,17.5714793 3.94413002,17.2908102 C3.94413002,17.0113886 4.02886962,16.7594101 4.22451841,16.5910087 L4.22451841,16.5910087 Z" id="gluthea-check"></path>
                        </g>
                    </g>
                </g>
            </g>
        </g>
    </g>
</svg>